<?xml version="1.0" encoding="utf-8" standalone="no"?>
<!DOCTYPE svg PUBLIC "-//W3C//DTD SVG 1.1//EN"
  "http://www.w3.org/Graphics/SVG/1.1/DTD/svg11.dtd">
<!-- Created with matplotlib (https://matplotlib.org/) -->
<svg height="336.3655pt" version="1.1" viewBox="0 0 362.755 336.3655" width="362.755pt" xmlns="http://www.w3.org/2000/svg" xmlns:xlink="http://www.w3.org/1999/xlink">
 <metadata>
  <rdf:RDF xmlns:cc="http://creativecommons.org/ns#" xmlns:dc="http://purl.org/dc/elements/1.1/" xmlns:rdf="http://www.w3.org/1999/02/22-rdf-syntax-ns#">
   <cc:Work>
    <dc:type rdf:resource="http://purl.org/dc/dcmitype/StillImage"/>
    <dc:date>2021-06-06T17:20:12.953165</dc:date>
    <dc:format>image/svg+xml</dc:format>
    <dc:creator>
     <cc:Agent>
      <dc:title>Matplotlib v3.3.2, https://matplotlib.org/</dc:title>
     </cc:Agent>
    </dc:creator>
   </cc:Work>
  </rdf:RDF>
 </metadata>
 <defs>
  <style type="text/css">*{stroke-linecap:butt;stroke-linejoin:round;}</style>
 </defs>
 <g id="figure_1">
  <g id="patch_1">
   <path d="M 0 336.3655 
L 362.755 336.3655 
L 362.755 0 
L 0 0 
z
" style="fill:#ffffff;"/>
  </g>
  <g id="axes_1">
   <g id="patch_2">
    <path d="M 261.859359 277.2 
C 285.555044 236.157869 298.0325 189.591371 298.0325 142.2 
C 298.0325 94.808629 285.555044 48.242131 261.859359 7.2 
L 28.0325 142.2 
C 28.0325 142.2 28.0325 142.2 28.0325 142.2 
C 28.0325 142.2 28.0325 142.2 28.0325 142.2 
L 261.859359 277.2 
z
" style="fill:#ffffff;"/>
   </g>
   <g id="matplotlib.axis_1">
    <g id="xtick_1">
     <g id="line2d_1">
      <path clip-path="url(#p214a3af930)" d="M 28.0325 142.2 
L 285.85134 222.383824 
" style="fill:none;stroke:#cccccc;stroke-dasharray:1.85,0.8;stroke-dashoffset:0;stroke-width:0.5;"/>
     </g>
     <g id="text_1">
      <!-- 1 -->
      <g style="fill:#262626;" transform="translate(292.5466 232.745878)scale(0.24 -0.24)">
       <defs>
        <path d="M 37.25 0 
L 28.46875 0 
L 28.46875 56 
Q 25.296875 52.984375 20.140625 49.953125 
Q 14.984375 46.921875 10.890625 45.40625 
L 10.890625 53.90625 
Q 18.265625 57.375 23.78125 62.296875 
Q 29.296875 67.234375 31.59375 71.875 
L 37.25 71.875 
z
" id="ArialMT-49"/>
       </defs>
       <use xlink:href="#ArialMT-49"/>
      </g>
     </g>
    </g>
    <g id="xtick_2">
     <g id="line2d_2">
      <path clip-path="url(#p214a3af930)" d="M 28.0325 142.2 
L 298.0325 142.2 
" style="fill:none;stroke:#cccccc;stroke-dasharray:1.85,0.8;stroke-dashoffset:0;stroke-width:0.5;"/>
     </g>
     <g id="text_2">
      <!-- 0 -->
      <g style="fill:#262626;" transform="translate(305.359375 148.404375)scale(0.24 -0.24)">
       <defs>
        <path d="M 4.15625 35.296875 
Q 4.15625 48 6.765625 55.734375 
Q 9.375 63.484375 14.515625 67.671875 
Q 19.671875 71.875 27.484375 71.875 
Q 33.25 71.875 37.59375 69.546875 
Q 41.9375 67.234375 44.765625 62.859375 
Q 47.609375 58.5 49.21875 52.21875 
Q 50.828125 45.953125 50.828125 35.296875 
Q 50.828125 22.703125 48.234375 14.96875 
Q 45.65625 7.234375 40.5 3 
Q 35.359375 -1.21875 27.484375 -1.21875 
Q 17.140625 -1.21875 11.234375 6.203125 
Q 4.15625 15.140625 4.15625 35.296875 
z
M 13.1875 35.296875 
Q 13.1875 17.671875 17.3125 11.828125 
Q 21.4375 6 27.484375 6 
Q 33.546875 6 37.671875 11.859375 
Q 41.796875 17.71875 41.796875 35.296875 
Q 41.796875 52.984375 37.671875 58.78125 
Q 33.546875 64.59375 27.390625 64.59375 
Q 21.34375 64.59375 17.71875 59.46875 
Q 13.1875 52.9375 13.1875 35.296875 
z
" id="ArialMT-48"/>
       </defs>
       <use xlink:href="#ArialMT-48"/>
      </g>
     </g>
    </g>
    <g id="xtick_3">
     <g id="line2d_3">
      <path clip-path="url(#p214a3af930)" d="M 28.0325 142.2 
L 285.85134 62.016176 
" style="fill:none;stroke:#cccccc;stroke-dasharray:1.85,0.8;stroke-dashoffset:0;stroke-width:0.5;"/>
     </g>
     <g id="text_3">
      <!-- -1 -->
      <g style="fill:#262626;" transform="translate(288.550975 64.062872)scale(0.24 -0.24)">
       <defs>
        <path d="M 3.171875 21.484375 
L 3.171875 30.328125 
L 30.171875 30.328125 
L 30.171875 21.484375 
z
" id="ArialMT-45"/>
       </defs>
       <use xlink:href="#ArialMT-45"/>
       <use x="33.300781" xlink:href="#ArialMT-49"/>
      </g>
     </g>
    </g>
    <g id="text_4">
     <!--  -->
     <g style="fill:#262626;" transform="translate(163.0325 298.37875)scale(0.24 -0.24)"/>
     <!-- Relative Length (a.u.) -->
     <g style="fill:#262626;" transform="translate(48.30875 324.11425)scale(0.24 -0.24)">
      <defs>
       <path d="M 7.859375 0 
L 7.859375 71.578125 
L 39.59375 71.578125 
Q 49.171875 71.578125 54.140625 69.640625 
Q 59.125 67.71875 62.109375 62.828125 
Q 65.09375 57.953125 65.09375 52.046875 
Q 65.09375 44.4375 60.15625 39.203125 
Q 55.21875 33.984375 44.921875 32.5625 
Q 48.6875 30.765625 50.640625 29 
Q 54.78125 25.203125 58.5 19.484375 
L 70.953125 0 
L 59.03125 0 
L 49.5625 14.890625 
Q 45.40625 21.34375 42.71875 24.75 
Q 40.046875 28.171875 37.921875 29.53125 
Q 35.796875 30.90625 33.59375 31.453125 
Q 31.984375 31.78125 28.328125 31.78125 
L 17.328125 31.78125 
L 17.328125 0 
z
M 17.328125 39.984375 
L 37.703125 39.984375 
Q 44.1875 39.984375 47.84375 41.328125 
Q 51.515625 42.671875 53.421875 45.625 
Q 55.328125 48.578125 55.328125 52.046875 
Q 55.328125 57.125 51.640625 60.390625 
Q 47.953125 63.671875 39.984375 63.671875 
L 17.328125 63.671875 
z
" id="ArialMT-82"/>
       <path d="M 42.09375 16.703125 
L 51.171875 15.578125 
Q 49.03125 7.625 43.21875 3.21875 
Q 37.40625 -1.171875 28.375 -1.171875 
Q 17 -1.171875 10.328125 5.828125 
Q 3.65625 12.84375 3.65625 25.484375 
Q 3.65625 38.578125 10.390625 45.796875 
Q 17.140625 53.03125 27.875 53.03125 
Q 38.28125 53.03125 44.875 45.953125 
Q 51.46875 38.875 51.46875 26.03125 
Q 51.46875 25.25 51.421875 23.6875 
L 12.75 23.6875 
Q 13.234375 15.140625 17.578125 10.59375 
Q 21.921875 6.0625 28.421875 6.0625 
Q 33.25 6.0625 36.671875 8.59375 
Q 40.09375 11.140625 42.09375 16.703125 
z
M 13.234375 30.90625 
L 42.1875 30.90625 
Q 41.609375 37.453125 38.875 40.71875 
Q 34.671875 45.796875 27.984375 45.796875 
Q 21.921875 45.796875 17.796875 41.75 
Q 13.671875 37.703125 13.234375 30.90625 
z
" id="ArialMT-101"/>
       <path d="M 6.390625 0 
L 6.390625 71.578125 
L 15.1875 71.578125 
L 15.1875 0 
z
" id="ArialMT-108"/>
       <path d="M 40.4375 6.390625 
Q 35.546875 2.25 31.03125 0.53125 
Q 26.515625 -1.171875 21.34375 -1.171875 
Q 12.796875 -1.171875 8.203125 3 
Q 3.609375 7.171875 3.609375 13.671875 
Q 3.609375 17.484375 5.34375 20.625 
Q 7.078125 23.78125 9.890625 25.6875 
Q 12.703125 27.59375 16.21875 28.5625 
Q 18.796875 29.25 24.03125 29.890625 
Q 34.671875 31.15625 39.703125 32.90625 
Q 39.75 34.71875 39.75 35.203125 
Q 39.75 40.578125 37.25 42.78125 
Q 33.890625 45.75 27.25 45.75 
Q 21.046875 45.75 18.09375 43.578125 
Q 15.140625 41.40625 13.71875 35.890625 
L 5.125 37.0625 
Q 6.296875 42.578125 8.984375 45.96875 
Q 11.671875 49.359375 16.75 51.1875 
Q 21.828125 53.03125 28.515625 53.03125 
Q 35.15625 53.03125 39.296875 51.46875 
Q 43.453125 49.90625 45.40625 47.53125 
Q 47.359375 45.171875 48.140625 41.546875 
Q 48.578125 39.3125 48.578125 33.453125 
L 48.578125 21.734375 
Q 48.578125 9.46875 49.140625 6.21875 
Q 49.703125 2.984375 51.375 0 
L 42.1875 0 
Q 40.828125 2.734375 40.4375 6.390625 
z
M 39.703125 26.03125 
Q 34.90625 24.078125 25.34375 22.703125 
Q 19.921875 21.921875 17.671875 20.9375 
Q 15.4375 19.96875 14.203125 18.09375 
Q 12.984375 16.21875 12.984375 13.921875 
Q 12.984375 10.40625 15.640625 8.0625 
Q 18.3125 5.71875 23.4375 5.71875 
Q 28.515625 5.71875 32.46875 7.9375 
Q 36.421875 10.15625 38.28125 14.015625 
Q 39.703125 17 39.703125 22.796875 
z
" id="ArialMT-97"/>
       <path d="M 25.78125 7.859375 
L 27.046875 0.09375 
Q 23.34375 -0.6875 20.40625 -0.6875 
Q 15.625 -0.6875 12.984375 0.828125 
Q 10.359375 2.34375 9.28125 4.8125 
Q 8.203125 7.28125 8.203125 15.1875 
L 8.203125 45.015625 
L 1.765625 45.015625 
L 1.765625 51.859375 
L 8.203125 51.859375 
L 8.203125 64.703125 
L 16.9375 69.96875 
L 16.9375 51.859375 
L 25.78125 51.859375 
L 25.78125 45.015625 
L 16.9375 45.015625 
L 16.9375 14.703125 
Q 16.9375 10.9375 17.40625 9.859375 
Q 17.875 8.796875 18.921875 8.15625 
Q 19.96875 7.515625 21.921875 7.515625 
Q 23.390625 7.515625 25.78125 7.859375 
z
" id="ArialMT-116"/>
       <path d="M 6.640625 61.46875 
L 6.640625 71.578125 
L 15.4375 71.578125 
L 15.4375 61.46875 
z
M 6.640625 0 
L 6.640625 51.859375 
L 15.4375 51.859375 
L 15.4375 0 
z
" id="ArialMT-105"/>
       <path d="M 21 0 
L 1.265625 51.859375 
L 10.546875 51.859375 
L 21.6875 20.796875 
Q 23.484375 15.765625 25 10.359375 
Q 26.171875 14.453125 28.265625 20.21875 
L 39.796875 51.859375 
L 48.828125 51.859375 
L 29.203125 0 
z
" id="ArialMT-118"/>
       <path id="ArialMT-32"/>
       <path d="M 7.328125 0 
L 7.328125 71.578125 
L 16.796875 71.578125 
L 16.796875 8.453125 
L 52.046875 8.453125 
L 52.046875 0 
z
" id="ArialMT-76"/>
       <path d="M 6.59375 0 
L 6.59375 51.859375 
L 14.5 51.859375 
L 14.5 44.484375 
Q 20.21875 53.03125 31 53.03125 
Q 35.6875 53.03125 39.625 51.34375 
Q 43.5625 49.65625 45.515625 46.921875 
Q 47.46875 44.1875 48.25 40.4375 
Q 48.734375 37.984375 48.734375 31.890625 
L 48.734375 0 
L 39.9375 0 
L 39.9375 31.546875 
Q 39.9375 36.921875 38.90625 39.578125 
Q 37.890625 42.234375 35.28125 43.8125 
Q 32.671875 45.40625 29.15625 45.40625 
Q 23.53125 45.40625 19.453125 41.84375 
Q 15.375 38.28125 15.375 28.328125 
L 15.375 0 
z
" id="ArialMT-110"/>
       <path d="M 4.984375 -4.296875 
L 13.53125 -5.5625 
Q 14.0625 -9.515625 16.5 -11.328125 
Q 19.78125 -13.765625 25.4375 -13.765625 
Q 31.546875 -13.765625 34.859375 -11.328125 
Q 38.1875 -8.890625 39.359375 -4.5 
Q 40.046875 -1.8125 39.984375 6.78125 
Q 34.234375 0 25.640625 0 
Q 14.9375 0 9.078125 7.71875 
Q 3.21875 15.4375 3.21875 26.21875 
Q 3.21875 33.640625 5.90625 39.90625 
Q 8.59375 46.1875 13.6875 49.609375 
Q 18.796875 53.03125 25.6875 53.03125 
Q 34.859375 53.03125 40.828125 45.609375 
L 40.828125 51.859375 
L 48.921875 51.859375 
L 48.921875 7.03125 
Q 48.921875 -5.078125 46.453125 -10.125 
Q 44 -15.1875 38.640625 -18.109375 
Q 33.296875 -21.046875 25.484375 -21.046875 
Q 16.21875 -21.046875 10.5 -16.875 
Q 4.78125 -12.703125 4.984375 -4.296875 
z
M 12.25 26.859375 
Q 12.25 16.65625 16.296875 11.96875 
Q 20.359375 7.28125 26.46875 7.28125 
Q 32.515625 7.28125 36.609375 11.9375 
Q 40.71875 16.609375 40.71875 26.5625 
Q 40.71875 36.078125 36.5 40.90625 
Q 32.28125 45.75 26.3125 45.75 
Q 20.453125 45.75 16.34375 40.984375 
Q 12.25 36.234375 12.25 26.859375 
z
" id="ArialMT-103"/>
       <path d="M 6.59375 0 
L 6.59375 71.578125 
L 15.375 71.578125 
L 15.375 45.90625 
Q 21.53125 53.03125 30.90625 53.03125 
Q 36.671875 53.03125 40.921875 50.75 
Q 45.171875 48.484375 47 44.484375 
Q 48.828125 40.484375 48.828125 32.859375 
L 48.828125 0 
L 40.046875 0 
L 40.046875 32.859375 
Q 40.046875 39.453125 37.1875 42.453125 
Q 34.328125 45.453125 29.109375 45.453125 
Q 25.203125 45.453125 21.75 43.421875 
Q 18.3125 41.40625 16.84375 37.9375 
Q 15.375 34.46875 15.375 28.375 
L 15.375 0 
z
" id="ArialMT-104"/>
       <path d="M 23.390625 -21.046875 
Q 16.109375 -11.859375 11.078125 0.4375 
Q 6.0625 12.75 6.0625 25.921875 
Q 6.0625 37.546875 9.8125 48.1875 
Q 14.203125 60.546875 23.390625 72.796875 
L 29.6875 72.796875 
Q 23.78125 62.640625 21.875 58.296875 
Q 18.890625 51.5625 17.1875 44.234375 
Q 15.09375 35.109375 15.09375 25.875 
Q 15.09375 2.390625 29.6875 -21.046875 
z
" id="ArialMT-40"/>
       <path d="M 9.078125 0 
L 9.078125 10.015625 
L 19.09375 10.015625 
L 19.09375 0 
z
" id="ArialMT-46"/>
       <path d="M 40.578125 0 
L 40.578125 7.625 
Q 34.515625 -1.171875 24.125 -1.171875 
Q 19.53125 -1.171875 15.546875 0.578125 
Q 11.578125 2.34375 9.640625 5 
Q 7.71875 7.671875 6.9375 11.53125 
Q 6.390625 14.109375 6.390625 19.734375 
L 6.390625 51.859375 
L 15.1875 51.859375 
L 15.1875 23.09375 
Q 15.1875 16.21875 15.71875 13.8125 
Q 16.546875 10.359375 19.234375 8.375 
Q 21.921875 6.390625 25.875 6.390625 
Q 29.828125 6.390625 33.296875 8.421875 
Q 36.765625 10.453125 38.203125 13.9375 
Q 39.65625 17.4375 39.65625 24.078125 
L 39.65625 51.859375 
L 48.4375 51.859375 
L 48.4375 0 
z
" id="ArialMT-117"/>
       <path d="M 12.359375 -21.046875 
L 6.0625 -21.046875 
Q 20.65625 2.390625 20.65625 25.875 
Q 20.65625 35.0625 18.5625 44.09375 
Q 16.890625 51.421875 13.921875 58.15625 
Q 12.015625 62.546875 6.0625 72.796875 
L 12.359375 72.796875 
Q 21.53125 60.546875 25.921875 48.1875 
Q 29.6875 37.546875 29.6875 25.921875 
Q 29.6875 12.75 24.625 0.4375 
Q 19.578125 -11.859375 12.359375 -21.046875 
z
" id="ArialMT-41"/>
      </defs>
      <use xlink:href="#ArialMT-82"/>
      <use x="72.216797" xlink:href="#ArialMT-101"/>
      <use x="127.832031" xlink:href="#ArialMT-108"/>
      <use x="150.048828" xlink:href="#ArialMT-97"/>
      <use x="205.664062" xlink:href="#ArialMT-116"/>
      <use x="233.447266" xlink:href="#ArialMT-105"/>
      <use x="255.664062" xlink:href="#ArialMT-118"/>
      <use x="305.664062" xlink:href="#ArialMT-101"/>
      <use x="361.279297" xlink:href="#ArialMT-32"/>
      <use x="389.0625" xlink:href="#ArialMT-76"/>
      <use x="444.677734" xlink:href="#ArialMT-101"/>
      <use x="500.292969" xlink:href="#ArialMT-110"/>
      <use x="555.908203" xlink:href="#ArialMT-103"/>
      <use x="611.523438" xlink:href="#ArialMT-116"/>
      <use x="639.306641" xlink:href="#ArialMT-104"/>
      <use x="694.921875" xlink:href="#ArialMT-32"/>
      <use x="722.705078" xlink:href="#ArialMT-40"/>
      <use x="756.005859" xlink:href="#ArialMT-97"/>
      <use x="811.621094" xlink:href="#ArialMT-46"/>
      <use x="839.404297" xlink:href="#ArialMT-117"/>
      <use x="895.019531" xlink:href="#ArialMT-46"/>
      <use x="922.802734" xlink:href="#ArialMT-41"/>
     </g>
    </g>
   </g>
   <g id="matplotlib.axis_2">
    <g id="ytick_1">
     <g id="line2d_4">
      <path clip-path="url(#p214a3af930)" d="M 28.0325 142.2 
C 28.0325 142.2 28.0325 142.2 28.0325 142.2 
C 28.0325 142.2 28.0325 142.2 28.0325 142.2 
" style="fill:none;stroke:#cccccc;stroke-dasharray:1.85,0.8;stroke-dashoffset:0;stroke-width:0.5;"/>
     </g>
     <g id="text_5">
      <!-- C -->
      <g style="fill:#262626;" transform="translate(7.2 165.440928)scale(0.24 -0.24)">
       <defs>
        <path d="M 58.796875 25.09375 
L 68.265625 22.703125 
Q 65.28125 11.03125 57.546875 4.90625 
Q 49.8125 -1.21875 38.625 -1.21875 
Q 27.046875 -1.21875 19.796875 3.484375 
Q 12.546875 8.203125 8.765625 17.140625 
Q 4.984375 26.078125 4.984375 36.328125 
Q 4.984375 47.515625 9.25 55.828125 
Q 13.53125 64.15625 21.40625 68.46875 
Q 29.296875 72.796875 38.765625 72.796875 
Q 49.515625 72.796875 56.828125 67.328125 
Q 64.15625 61.859375 67.046875 51.953125 
L 57.71875 49.75 
Q 55.21875 57.5625 50.484375 61.125 
Q 45.75 64.703125 38.578125 64.703125 
Q 30.328125 64.703125 24.78125 60.734375 
Q 19.234375 56.78125 16.984375 50.109375 
Q 14.75 43.453125 14.75 36.375 
Q 14.75 27.25 17.40625 20.4375 
Q 20.0625 13.625 25.671875 10.25 
Q 31.296875 6.890625 37.84375 6.890625 
Q 45.796875 6.890625 51.3125 11.46875 
Q 56.84375 16.0625 58.796875 25.09375 
z
" id="ArialMT-67"/>
       </defs>
       <use xlink:href="#ArialMT-67"/>
      </g>
     </g>
    </g>
    <g id="ytick_2">
     <g id="line2d_5">
      <path clip-path="url(#p214a3af930)" d="M 86.489215 175.95 
C 92.413136 165.689467 95.5325 154.047843 95.5325 142.2 
C 95.5325 130.352157 92.413136 118.710533 86.489215 108.45 
" style="fill:none;stroke:#cccccc;stroke-dasharray:1.85,0.8;stroke-dashoffset:0;stroke-width:0.5;"/>
     </g>
     <g id="text_6">
      <!-- 0.5 -->
      <g style="fill:#262626;" transform="translate(49.629215 199.190928)scale(0.24 -0.24)">
       <defs>
        <path d="M 4.15625 18.75 
L 13.375 19.53125 
Q 14.40625 12.796875 18.140625 9.390625 
Q 21.875 6 27.15625 6 
Q 33.5 6 37.890625 10.78125 
Q 42.28125 15.578125 42.28125 23.484375 
Q 42.28125 31 38.0625 35.34375 
Q 33.84375 39.703125 27 39.703125 
Q 22.75 39.703125 19.328125 37.765625 
Q 15.921875 35.84375 13.96875 32.765625 
L 5.71875 33.84375 
L 12.640625 70.609375 
L 48.25 70.609375 
L 48.25 62.203125 
L 19.671875 62.203125 
L 15.828125 42.96875 
Q 22.265625 47.46875 29.34375 47.46875 
Q 38.71875 47.46875 45.15625 40.96875 
Q 51.609375 34.46875 51.609375 24.265625 
Q 51.609375 14.546875 45.953125 7.46875 
Q 39.0625 -1.21875 27.15625 -1.21875 
Q 17.390625 -1.21875 11.203125 4.25 
Q 5.03125 9.71875 4.15625 18.75 
z
" id="ArialMT-53"/>
       </defs>
       <use xlink:href="#ArialMT-48"/>
       <use x="55.615234" xlink:href="#ArialMT-46"/>
       <use x="83.398438" xlink:href="#ArialMT-53"/>
      </g>
     </g>
    </g>
    <g id="ytick_3">
     <g id="line2d_6">
      <path clip-path="url(#p214a3af930)" d="M 144.94593 209.7 
C 156.793772 189.178935 163.0325 165.895685 163.0325 142.2 
C 163.0325 118.504315 156.793772 95.221065 144.94593 74.7 
" style="fill:none;stroke:#cccccc;stroke-dasharray:1.85,0.8;stroke-dashoffset:0;stroke-width:0.5;"/>
     </g>
     <g id="text_7">
      <!-- 1.0 -->
      <g style="fill:#262626;" transform="translate(108.08593 232.940928)scale(0.24 -0.24)">
       <use xlink:href="#ArialMT-49"/>
       <use x="55.615234" xlink:href="#ArialMT-46"/>
       <use x="83.398438" xlink:href="#ArialMT-48"/>
      </g>
     </g>
    </g>
    <g id="ytick_4">
     <g id="line2d_7">
      <path clip-path="url(#p214a3af930)" d="M 203.402644 243.45 
C 221.174408 212.668402 230.5325 177.743528 230.5325 142.2 
C 230.5325 106.656472 221.174408 71.731598 203.402644 40.95 
" style="fill:none;stroke:#cccccc;stroke-dasharray:1.85,0.8;stroke-dashoffset:0;stroke-width:0.5;"/>
     </g>
     <g id="text_8">
      <!-- 1.5 -->
      <g style="fill:#262626;" transform="translate(166.542644 266.690928)scale(0.24 -0.24)">
       <use xlink:href="#ArialMT-49"/>
       <use x="55.615234" xlink:href="#ArialMT-46"/>
       <use x="83.398438" xlink:href="#ArialMT-53"/>
      </g>
     </g>
    </g>
    <g id="ytick_5">
     <g id="line2d_8">
      <path clip-path="url(#p214a3af930)" d="M 261.859359 277.2 
C 285.555044 236.157869 298.0325 189.591371 298.0325 142.2 
C 298.0325 94.808629 285.555044 48.242131 261.859359 7.2 
" style="fill:none;stroke:#cccccc;stroke-dasharray:1.85,0.8;stroke-dashoffset:0;stroke-width:0.5;"/>
     </g>
     <g id="text_9">
      <!-- 2.0 -->
      <g style="fill:#262626;" transform="translate(224.999359 300.440928)scale(0.24 -0.24)">
       <defs>
        <path d="M 50.34375 8.453125 
L 50.34375 0 
L 3.03125 0 
Q 2.9375 3.171875 4.046875 6.109375 
Q 5.859375 10.9375 9.828125 15.625 
Q 13.8125 20.3125 21.34375 26.46875 
Q 33.015625 36.03125 37.109375 41.625 
Q 41.21875 47.21875 41.21875 52.203125 
Q 41.21875 57.421875 37.46875 61 
Q 33.734375 64.59375 27.734375 64.59375 
Q 21.390625 64.59375 17.578125 60.78125 
Q 13.765625 56.984375 13.71875 50.25 
L 4.6875 51.171875 
Q 5.609375 61.28125 11.65625 66.578125 
Q 17.71875 71.875 27.9375 71.875 
Q 38.234375 71.875 44.234375 66.15625 
Q 50.25 60.453125 50.25 52 
Q 50.25 47.703125 48.484375 43.546875 
Q 46.734375 39.40625 42.65625 34.8125 
Q 38.578125 30.21875 29.109375 22.21875 
Q 21.1875 15.578125 18.9375 13.203125 
Q 16.703125 10.84375 15.234375 8.453125 
z
" id="ArialMT-50"/>
       </defs>
       <use xlink:href="#ArialMT-50"/>
       <use x="55.615234" xlink:href="#ArialMT-46"/>
       <use x="83.398438" xlink:href="#ArialMT-48"/>
      </g>
     </g>
    </g>
    <g id="text_10">
     <!-- Relative Angle (a.u.) -->
     <g style="fill:#262626;" transform="translate(350.50375 250.254375)rotate(-90)scale(0.24 -0.24)">
      <defs>
       <path d="M -0.140625 0 
L 27.34375 71.578125 
L 37.546875 71.578125 
L 66.84375 0 
L 56.0625 0 
L 47.703125 21.6875 
L 17.78125 21.6875 
L 9.90625 0 
z
M 20.515625 29.390625 
L 44.78125 29.390625 
L 37.3125 49.21875 
Q 33.890625 58.25 32.234375 64.0625 
Q 30.859375 57.171875 28.375 50.390625 
z
" id="ArialMT-65"/>
      </defs>
      <use xlink:href="#ArialMT-82"/>
      <use x="72.216797" xlink:href="#ArialMT-101"/>
      <use x="127.832031" xlink:href="#ArialMT-108"/>
      <use x="150.048828" xlink:href="#ArialMT-97"/>
      <use x="205.664062" xlink:href="#ArialMT-116"/>
      <use x="233.447266" xlink:href="#ArialMT-105"/>
      <use x="255.664062" xlink:href="#ArialMT-118"/>
      <use x="305.664062" xlink:href="#ArialMT-101"/>
      <use x="361.279297" xlink:href="#ArialMT-32"/>
      <use x="383.5625" xlink:href="#ArialMT-65"/>
      <use x="450.261719" xlink:href="#ArialMT-110"/>
      <use x="505.876953" xlink:href="#ArialMT-103"/>
      <use x="561.492188" xlink:href="#ArialMT-108"/>
      <use x="583.708984" xlink:href="#ArialMT-101"/>
      <use x="639.324219" xlink:href="#ArialMT-32"/>
      <use x="667.107422" xlink:href="#ArialMT-40"/>
      <use x="700.408203" xlink:href="#ArialMT-97"/>
      <use x="756.023438" xlink:href="#ArialMT-46"/>
      <use x="783.806641" xlink:href="#ArialMT-117"/>
      <use x="839.421875" xlink:href="#ArialMT-46"/>
      <use x="867.205078" xlink:href="#ArialMT-41"/>
     </g>
    </g>
   </g>
   <g id="line2d_9">
    <path clip-path="url(#p214a3af930)" d="M 28.0325 142.2 
L 363.755 142.2 
" style="fill:none;stroke:#cccccc;stroke-dasharray:3.7,1.6;stroke-dashoffset:0;"/>
   </g>
   <g id="line2d_10">
    <path clip-path="url(#p214a3af930)" d="M 28.0325 142.2 
L 350.30605 41.970221 
" style="fill:none;stroke:#cccccc;stroke-dasharray:3.7,1.6;stroke-dashoffset:0;"/>
   </g>
   <g id="line2d_11">
    <path clip-path="url(#p214a3af930)" d="M 28.0325 142.2 
L 350.30605 242.429779 
" style="fill:none;stroke:#cccccc;stroke-dasharray:3.7,1.6;stroke-dashoffset:0;"/>
   </g>
   <g id="line2d_12">
    <defs>
     <path d="M 0 1 
C 0.265203 1 0.51958 0.894634 0.707107 0.707107 
C 0.894634 0.51958 1 0.265203 1 0 
C 1 -0.265203 0.894634 -0.51958 0.707107 -0.707107 
C 0.51958 -0.894634 0.265203 -1 0 -1 
C -0.265203 -1 -0.51958 -0.894634 -0.707107 -0.707107 
C -0.894634 -0.51958 -1 -0.265203 -1 0 
C -1 0.265203 -0.894634 0.51958 -0.707107 0.707107 
C -0.51958 0.894634 -0.265203 1 0 1 
z
" id="m9b39566575" style="stroke:#ff0000;stroke-opacity:0.5;"/>
    </defs>
    <g clip-path="url(#p214a3af930)">
     <use style="fill:#ff0000;fill-opacity:0.5;stroke:#ff0000;stroke-opacity:0.5;" x="71.781602" xlink:href="#m9b39566575" y="128.593662"/>
    </g>
   </g>
   <g id="line2d_13">
    <defs>
     <path d="M 0 1 
C 0.265203 1 0.51958 0.894634 0.707107 0.707107 
C 0.894634 0.51958 1 0.265203 1 0 
C 1 -0.265203 0.894634 -0.51958 0.707107 -0.707107 
C 0.51958 -0.894634 0.265203 -1 0 -1 
C -0.265203 -1 -0.51958 -0.894634 -0.707107 -0.707107 
C -0.894634 -0.51958 -1 -0.265203 -1 0 
C -1 0.265203 -0.894634 0.51958 -0.707107 0.707107 
C -0.51958 0.894634 -0.265203 1 0 1 
z
" id="mf672ea905e" style="stroke:#cfcf1c;stroke-opacity:0.5;"/>
    </defs>
    <g clip-path="url(#p214a3af930)">
     <use style="fill:#cfcf1c;fill-opacity:0.5;stroke:#cfcf1c;stroke-opacity:0.5;" x="75.508222" xlink:href="#mf672ea905e" y="156.965348"/>
    </g>
   </g>
   <g id="line2d_14">
    <defs>
     <path d="M 0 7.5 
C 1.989023 7.5 3.896849 6.709753 5.303301 5.303301 
C 6.709753 3.896849 7.5 1.989023 7.5 0 
C 7.5 -1.989023 6.709753 -3.896849 5.303301 -5.303301 
C 3.896849 -6.709753 1.989023 -7.5 0 -7.5 
C -1.989023 -7.5 -3.896849 -6.709753 -5.303301 -5.303301 
C -6.709753 -3.896849 -7.5 -1.989023 -7.5 0 
C -7.5 1.989023 -6.709753 3.896849 -5.303301 5.303301 
C -3.896849 6.709753 -1.989023 7.5 0 7.5 
z
" id="mf9bdf22a7b" style="stroke:#ff0000;stroke-opacity:0.8;"/>
    </defs>
    <g clip-path="url(#p214a3af930)">
     <use style="fill-opacity:0;stroke:#ff0000;stroke-opacity:0.8;" x="228.238552" xlink:href="#mf9bdf22a7b" y="79.934237"/>
    </g>
   </g>
   <g id="line2d_15">
    <defs>
     <path d="M 0 7.5 
C 1.989023 7.5 3.896849 6.709753 5.303301 5.303301 
C 6.709753 3.896849 7.5 1.989023 7.5 0 
C 7.5 -1.989023 6.709753 -3.896849 5.303301 -5.303301 
C 3.896849 -6.709753 1.989023 -7.5 0 -7.5 
C -1.989023 -7.5 -3.896849 -6.709753 -5.303301 -5.303301 
C -6.709753 -3.896849 -7.5 -1.989023 -7.5 0 
C -7.5 1.989023 -6.709753 3.896849 -5.303301 5.303301 
C -3.896849 6.709753 -1.989023 7.5 0 7.5 
z
" id="m0b69aabe53" style="stroke:#cfcf1c;stroke-opacity:0.8;"/>
    </defs>
    <g clip-path="url(#p214a3af930)">
     <use style="fill-opacity:0;stroke:#cfcf1c;stroke-opacity:0.8;" x="163.0325" xlink:href="#m0b69aabe53" y="142.2"/>
    </g>
   </g>
   <g id="line2d_16">
    <defs>
     <path d="M 0 7.5 
C 1.989023 7.5 3.896849 6.709753 5.303301 5.303301 
C 6.709753 3.896849 7.5 1.989023 7.5 0 
C 7.5 -1.989023 6.709753 -3.896849 5.303301 -5.303301 
C 3.896849 -6.709753 1.989023 -7.5 0 -7.5 
C -1.989023 -7.5 -3.896849 -6.709753 -5.303301 -5.303301 
C -6.709753 -3.896849 -7.5 -1.989023 -7.5 0 
C -7.5 1.989023 -6.709753 3.896849 -5.303301 5.303301 
C -3.896849 6.709753 -1.989023 7.5 0 7.5 
z
" id="m538b9cd707" style="stroke:#ff7c80;stroke-opacity:0.8;"/>
    </defs>
    <g clip-path="url(#p214a3af930)">
     <use style="fill-opacity:0;stroke:#ff7c80;stroke-opacity:0.8;" x="253.834768" xlink:href="#m538b9cd707" y="212.426401"/>
    </g>
   </g>
   <g id="line2d_17">
    <defs>
     <path d="M 0 2 
C 0.530406 2 1.03916 1.789267 1.414214 1.414214 
C 1.789267 1.03916 2 0.530406 2 0 
C 2 -0.530406 1.789267 -1.03916 1.414214 -1.414214 
C 1.03916 -1.789267 0.530406 -2 0 -2 
C -0.530406 -2 -1.03916 -1.789267 -1.414214 -1.414214 
C -1.789267 -1.03916 -2 -0.530406 -2 0 
C -2 0.530406 -1.789267 1.03916 -1.414214 1.414214 
C -1.03916 1.789267 -0.530406 2 0 2 
z
" id="mbff77cb16c" style="stroke:#ff0000;stroke-opacity:0.5;"/>
    </defs>
    <g clip-path="url(#p214a3af930)">
     <use style="fill:#ff0000;fill-opacity:0.5;stroke:#ff0000;stroke-opacity:0.5;" x="70.997146" xlink:href="#mbff77cb16c" y="128.837634"/>
    </g>
   </g>
   <g id="line2d_18">
    <defs>
     <path d="M 0 2 
C 0.530406 2 1.03916 1.789267 1.414214 1.414214 
C 1.789267 1.03916 2 0.530406 2 0 
C 2 -0.530406 1.789267 -1.03916 1.414214 -1.414214 
C 1.03916 -1.789267 0.530406 -2 0 -2 
C -0.530406 -2 -1.03916 -1.789267 -1.414214 -1.414214 
C -1.789267 -1.03916 -2 -0.530406 -2 0 
C -2 0.530406 -1.789267 1.03916 -1.414214 1.414214 
C -1.03916 1.789267 -0.530406 2 0 2 
z
" id="med6700dcd9" style="stroke:#cfcf1c;stroke-opacity:0.5;"/>
    </defs>
    <g clip-path="url(#p214a3af930)">
     <use style="fill:#cfcf1c;fill-opacity:0.5;stroke:#cfcf1c;stroke-opacity:0.5;" x="74.462908" xlink:href="#med6700dcd9" y="156.640247"/>
    </g>
   </g>
   <g id="line2d_19">
    <defs>
     <path d="M 0 8.5 
C 2.254226 8.5 4.416429 7.604386 6.010408 6.010408 
C 7.604386 4.416429 8.5 2.254226 8.5 0 
C 8.5 -2.254226 7.604386 -4.416429 6.010408 -6.010408 
C 4.416429 -7.604386 2.254226 -8.5 0 -8.5 
C -2.254226 -8.5 -4.416429 -7.604386 -6.010408 -6.010408 
C -7.604386 -4.416429 -8.5 -2.254226 -8.5 0 
C -8.5 2.254226 -7.604386 4.416429 -6.010408 6.010408 
C -4.416429 7.604386 -2.254226 8.5 0 8.5 
z
" id="m3d0e136591" style="stroke:#ff0000;stroke-opacity:0.8;"/>
    </defs>
    <g clip-path="url(#p214a3af930)">
     <use style="fill-opacity:0;stroke:#ff0000;stroke-opacity:0.8;" x="234.468666" xlink:href="#m3d0e136591" y="77.99662"/>
    </g>
   </g>
   <g id="line2d_20">
    <defs>
     <path d="M 0 8.5 
C 2.254226 8.5 4.416429 7.604386 6.010408 6.010408 
C 7.604386 4.416429 8.5 2.254226 8.5 0 
C 8.5 -2.254226 7.604386 -4.416429 6.010408 -6.010408 
C 4.416429 -7.604386 2.254226 -8.5 0 -8.5 
C -2.254226 -8.5 -4.416429 -7.604386 -6.010408 -6.010408 
C -7.604386 -4.416429 -8.5 -2.254226 -8.5 0 
C -8.5 2.254226 -7.604386 4.416429 -6.010408 6.010408 
C -4.416429 7.604386 -2.254226 8.5 0 8.5 
z
" id="m21f7799af9" style="stroke:#cfcf1c;stroke-opacity:0.8;"/>
    </defs>
    <g clip-path="url(#p214a3af930)">
     <use style="fill-opacity:0;stroke:#cfcf1c;stroke-opacity:0.8;" x="163.0325" xlink:href="#m21f7799af9" y="142.2"/>
    </g>
   </g>
   <g id="line2d_21">
    <defs>
     <path d="M 0 8.5 
C 2.254226 8.5 4.416429 7.604386 6.010408 6.010408 
C 7.604386 4.416429 8.5 2.254226 8.5 0 
C 8.5 -2.254226 7.604386 -4.416429 6.010408 -6.010408 
C 4.416429 -7.604386 2.254226 -8.5 0 -8.5 
C -2.254226 -8.5 -4.416429 -7.604386 -6.010408 -6.010408 
C -7.604386 -4.416429 -8.5 -2.254226 -8.5 0 
C -8.5 2.254226 -7.604386 4.416429 -6.010408 6.010408 
C -4.416429 7.604386 -2.254226 8.5 0 8.5 
z
" id="m66c7bc22ef" style="stroke:#ff7c80;stroke-opacity:0.8;"/>
    </defs>
    <g clip-path="url(#p214a3af930)">
     <use style="fill-opacity:0;stroke:#ff7c80;stroke-opacity:0.8;" x="245.390713" xlink:href="#m66c7bc22ef" y="209.800229"/>
    </g>
   </g>
   <g id="line2d_22">
    <defs>
     <path d="M 0 3 
C 0.795609 3 1.55874 2.683901 2.12132 2.12132 
C 2.683901 1.55874 3 0.795609 3 0 
C 3 -0.795609 2.683901 -1.55874 2.12132 -2.12132 
C 1.55874 -2.683901 0.795609 -3 0 -3 
C -0.795609 -3 -1.55874 -2.683901 -2.12132 -2.12132 
C -2.683901 -1.55874 -3 -0.795609 -3 0 
C -3 0.795609 -2.683901 1.55874 -2.12132 2.12132 
C -1.55874 2.683901 -0.795609 3 0 3 
z
" id="me356bc4d49" style="stroke:#ff0000;stroke-opacity:0.5;"/>
    </defs>
    <g clip-path="url(#p214a3af930)">
     <use style="fill:#ff0000;fill-opacity:0.5;stroke:#ff0000;stroke-opacity:0.5;" x="67.416257" xlink:href="#me356bc4d49" y="129.951321"/>
    </g>
   </g>
   <g id="line2d_23">
    <defs>
     <path d="M 0 3 
C 0.795609 3 1.55874 2.683901 2.12132 2.12132 
C 2.683901 1.55874 3 0.795609 3 0 
C 3 -0.795609 2.683901 -1.55874 2.12132 -2.12132 
C 1.55874 -2.683901 0.795609 -3 0 -3 
C -0.795609 -3 -1.55874 -2.683901 -2.12132 -2.12132 
C -2.683901 -1.55874 -3 -0.795609 -3 0 
C -3 0.795609 -2.683901 1.55874 -2.12132 2.12132 
C -1.55874 2.683901 -0.795609 3 0 3 
z
" id="m524ebeba0e" style="stroke:#cfcf1c;stroke-opacity:0.5;"/>
    </defs>
    <g clip-path="url(#p214a3af930)">
     <use style="fill:#cfcf1c;fill-opacity:0.5;stroke:#cfcf1c;stroke-opacity:0.5;" x="69.774479" xlink:href="#m524ebeba0e" y="155.182106"/>
    </g>
   </g>
   <g id="line2d_24">
    <defs>
     <path d="M 0 9.5 
C 2.519429 9.5 4.936009 8.49902 6.717514 6.717514 
C 8.49902 4.936009 9.5 2.519429 9.5 0 
C 9.5 -2.519429 8.49902 -4.936009 6.717514 -6.717514 
C 4.936009 -8.49902 2.519429 -9.5 0 -9.5 
C -2.519429 -9.5 -4.936009 -8.49902 -6.717514 -6.717514 
C -8.49902 -4.936009 -9.5 -2.519429 -9.5 0 
C -9.5 2.519429 -8.49902 4.936009 -6.717514 6.717514 
C -4.936009 8.49902 -2.519429 9.5 0 9.5 
z
" id="mfc95dd2e22" style="stroke:#ff0000;stroke-opacity:0.8;"/>
    </defs>
    <g clip-path="url(#p214a3af930)">
     <use style="fill-opacity:0;stroke:#ff0000;stroke-opacity:0.8;" x="236.058861" xlink:href="#mfc95dd2e22" y="77.502056"/>
    </g>
   </g>
   <g id="line2d_25">
    <defs>
     <path d="M 0 9.5 
C 2.519429 9.5 4.936009 8.49902 6.717514 6.717514 
C 8.49902 4.936009 9.5 2.519429 9.5 0 
C 9.5 -2.519429 8.49902 -4.936009 6.717514 -6.717514 
C 4.936009 -8.49902 2.519429 -9.5 0 -9.5 
C -2.519429 -9.5 -4.936009 -8.49902 -6.717514 -6.717514 
C -8.49902 -4.936009 -9.5 -2.519429 -9.5 0 
C -9.5 2.519429 -8.49902 4.936009 -6.717514 6.717514 
C -4.936009 8.49902 -2.519429 9.5 0 9.5 
z
" id="m49f803f875" style="stroke:#cfcf1c;stroke-opacity:0.8;"/>
    </defs>
    <g clip-path="url(#p214a3af930)">
     <use style="fill-opacity:0;stroke:#cfcf1c;stroke-opacity:0.8;" x="163.0325" xlink:href="#m49f803f875" y="142.2"/>
    </g>
   </g>
   <g id="line2d_26">
    <defs>
     <path d="M 0 9.5 
C 2.519429 9.5 4.936009 8.49902 6.717514 6.717514 
C 8.49902 4.936009 9.5 2.519429 9.5 0 
C 9.5 -2.519429 8.49902 -4.936009 6.717514 -6.717514 
C 4.936009 -8.49902 2.519429 -9.5 0 -9.5 
C -2.519429 -9.5 -4.936009 -8.49902 -6.717514 -6.717514 
C -8.49902 -4.936009 -9.5 -2.519429 -9.5 0 
C -9.5 2.519429 -8.49902 4.936009 -6.717514 6.717514 
C -4.936009 8.49902 -2.519429 9.5 0 9.5 
z
" id="m2978bd9791" style="stroke:#ff7c80;stroke-opacity:0.8;"/>
    </defs>
    <g clip-path="url(#p214a3af930)">
     <use style="fill-opacity:0;stroke:#ff7c80;stroke-opacity:0.8;" x="245.827977" xlink:href="#m2978bd9791" y="209.936222"/>
    </g>
   </g>
   <g id="line2d_27">
    <defs>
     <path d="M 0 4 
C 1.060812 4 2.078319 3.578535 2.828427 2.828427 
C 3.578535 2.078319 4 1.060812 4 0 
C 4 -1.060812 3.578535 -2.078319 2.828427 -2.828427 
C 2.078319 -3.578535 1.060812 -4 0 -4 
C -1.060812 -4 -2.078319 -3.578535 -2.828427 -2.828427 
C -3.578535 -2.078319 -4 -1.060812 -4 0 
C -4 1.060812 -3.578535 2.078319 -2.828427 2.828427 
C -2.078319 3.578535 -1.060812 4 0 4 
z
" id="md49ad0ae91" style="stroke:#ff0000;stroke-opacity:0.5;"/>
    </defs>
    <g clip-path="url(#p214a3af930)">
     <use style="fill:#ff0000;fill-opacity:0.5;stroke:#ff0000;stroke-opacity:0.5;" x="65.742513" xlink:href="#md49ad0ae91" y="130.471869"/>
    </g>
   </g>
   <g id="line2d_28">
    <defs>
     <path d="M 0 4 
C 1.060812 4 2.078319 3.578535 2.828427 2.828427 
C 3.578535 2.078319 4 1.060812 4 0 
C 4 -1.060812 3.578535 -2.078319 2.828427 -2.828427 
C 2.078319 -3.578535 1.060812 -4 0 -4 
C -1.060812 -4 -2.078319 -3.578535 -2.828427 -2.828427 
C -3.578535 -2.078319 -4 -1.060812 -4 0 
C -4 1.060812 -3.578535 2.078319 -2.828427 2.828427 
C -2.078319 3.578535 -1.060812 4 0 4 
z
" id="me5335db247" style="stroke:#cfcf1c;stroke-opacity:0.5;"/>
    </defs>
    <g clip-path="url(#p214a3af930)">
     <use style="fill:#cfcf1c;fill-opacity:0.5;stroke:#cfcf1c;stroke-opacity:0.5;" x="66.682253" xlink:href="#me5335db247" y="154.220398"/>
    </g>
   </g>
   <g id="line2d_29">
    <defs>
     <path d="M 0 10.5 
C 2.784633 10.5 5.455589 9.393654 7.424621 7.424621 
C 9.393654 5.455589 10.5 2.784633 10.5 0 
C 10.5 -2.784633 9.393654 -5.455589 7.424621 -7.424621 
C 5.455589 -9.393654 2.784633 -10.5 0 -10.5 
C -2.784633 -10.5 -5.455589 -9.393654 -7.424621 -7.424621 
C -9.393654 -5.455589 -10.5 -2.784633 -10.5 0 
C -10.5 2.784633 -9.393654 5.455589 -7.424621 7.424621 
C -5.455589 9.393654 -2.784633 10.5 0 10.5 
z
" id="m05314d6fec" style="stroke:#ff0000;stroke-opacity:0.8;"/>
    </defs>
    <g clip-path="url(#p214a3af930)">
     <use style="fill-opacity:0;stroke:#ff0000;stroke-opacity:0.8;" x="243.189874" xlink:href="#m05314d6fec" y="75.284251"/>
    </g>
   </g>
   <g id="line2d_30">
    <defs>
     <path d="M 0 10.5 
C 2.784633 10.5 5.455589 9.393654 7.424621 7.424621 
C 9.393654 5.455589 10.5 2.784633 10.5 0 
C 10.5 -2.784633 9.393654 -5.455589 7.424621 -7.424621 
C 5.455589 -9.393654 2.784633 -10.5 0 -10.5 
C -2.784633 -10.5 -5.455589 -9.393654 -7.424621 -7.424621 
C -9.393654 -5.455589 -10.5 -2.784633 -10.5 0 
C -10.5 2.784633 -9.393654 5.455589 -7.424621 7.424621 
C -5.455589 9.393654 -2.784633 10.5 0 10.5 
z
" id="m5fffeaa24b" style="stroke:#cfcf1c;stroke-opacity:0.8;"/>
    </defs>
    <g clip-path="url(#p214a3af930)">
     <use style="fill-opacity:0;stroke:#cfcf1c;stroke-opacity:0.8;" x="163.0325" xlink:href="#m5fffeaa24b" y="142.2"/>
    </g>
   </g>
   <g id="line2d_31">
    <defs>
     <path d="M 0 10.5 
C 2.784633 10.5 5.455589 9.393654 7.424621 7.424621 
C 9.393654 5.455589 10.5 2.784633 10.5 0 
C 10.5 -2.784633 9.393654 -5.455589 7.424621 -7.424621 
C 5.455589 -9.393654 2.784633 -10.5 0 -10.5 
C -2.784633 -10.5 -5.455589 -9.393654 -7.424621 -7.424621 
C -9.393654 -5.455589 -10.5 -2.784633 -10.5 0 
C -10.5 2.784633 -9.393654 5.455589 -7.424621 7.424621 
C -5.455589 9.393654 -2.784633 10.5 0 10.5 
z
" id="me20d13e7f9" style="stroke:#ff7c80;stroke-opacity:0.8;"/>
    </defs>
    <g clip-path="url(#p214a3af930)">
     <use style="fill-opacity:0;stroke:#ff7c80;stroke-opacity:0.8;" x="251.890995" xlink:href="#me20d13e7f9" y="211.821871"/>
    </g>
   </g>
   <g id="line2d_32">
    <defs>
     <path d="M 0 5 
C 1.326016 5 2.597899 4.473168 3.535534 3.535534 
C 4.473168 2.597899 5 1.326016 5 0 
C 5 -1.326016 4.473168 -2.597899 3.535534 -3.535534 
C 2.597899 -4.473168 1.326016 -5 0 -5 
C -1.326016 -5 -2.597899 -4.473168 -3.535534 -3.535534 
C -4.473168 -2.597899 -5 -1.326016 -5 0 
C -5 1.326016 -4.473168 2.597899 -3.535534 3.535534 
C -2.597899 4.473168 -1.326016 5 0 5 
z
" id="mdff7919af2" style="stroke:#ff0000;stroke-opacity:0.5;"/>
    </defs>
    <g clip-path="url(#p214a3af930)">
     <use style="fill:#ff0000;fill-opacity:0.5;stroke:#ff0000;stroke-opacity:0.5;" x="67.55207" xlink:href="#mdff7919af2" y="129.909082"/>
    </g>
   </g>
   <g id="line2d_33">
    <defs>
     <path d="M 0 5 
C 1.326016 5 2.597899 4.473168 3.535534 3.535534 
C 4.473168 2.597899 5 1.326016 5 0 
C 5 -1.326016 4.473168 -2.597899 3.535534 -3.535534 
C 2.597899 -4.473168 1.326016 -5 0 -5 
C -1.326016 -5 -2.597899 -4.473168 -3.535534 -3.535534 
C -4.473168 -2.597899 -5 -1.326016 -5 0 
C -5 1.326016 -4.473168 2.597899 -3.535534 3.535534 
C -2.597899 4.473168 -1.326016 5 0 5 
z
" id="m62da9fe9ab" style="stroke:#cfcf1c;stroke-opacity:0.5;"/>
    </defs>
    <g clip-path="url(#p214a3af930)">
     <use style="fill:#cfcf1c;fill-opacity:0.5;stroke:#cfcf1c;stroke-opacity:0.5;" x="66.931132" xlink:href="#m62da9fe9ab" y="154.297801"/>
    </g>
   </g>
   <g id="line2d_34">
    <defs>
     <path d="M 0 11.5 
C 3.049836 11.5 5.975169 10.288287 8.131728 8.131728 
C 10.288287 5.975169 11.5 3.049836 11.5 0 
C 11.5 -3.049836 10.288287 -5.975169 8.131728 -8.131728 
C 5.975169 -10.288287 3.049836 -11.5 0 -11.5 
C -3.049836 -11.5 -5.975169 -10.288287 -8.131728 -8.131728 
C -10.288287 -5.975169 -11.5 -3.049836 -11.5 0 
C -11.5 3.049836 -10.288287 5.975169 -8.131728 8.131728 
C -5.975169 10.288287 -3.049836 11.5 0 11.5 
z
" id="mbc34c3bdfe" style="stroke:#ff0000;stroke-opacity:0.8;"/>
    </defs>
    <g clip-path="url(#p214a3af930)">
     <use style="fill-opacity:0;stroke:#ff0000;stroke-opacity:0.8;" x="250.933381" xlink:href="#mbc34c3bdfe" y="72.875955"/>
    </g>
   </g>
   <g id="line2d_35">
    <defs>
     <path d="M 0 11.5 
C 3.049836 11.5 5.975169 10.288287 8.131728 8.131728 
C 10.288287 5.975169 11.5 3.049836 11.5 0 
C 11.5 -3.049836 10.288287 -5.975169 8.131728 -8.131728 
C 5.975169 -10.288287 3.049836 -11.5 0 -11.5 
C -3.049836 -11.5 -5.975169 -10.288287 -8.131728 -8.131728 
C -10.288287 -5.975169 -11.5 -3.049836 -11.5 0 
C -11.5 3.049836 -10.288287 5.975169 -8.131728 8.131728 
C -5.975169 10.288287 -3.049836 11.5 0 11.5 
z
" id="mb82b9d7b24" style="stroke:#cfcf1c;stroke-opacity:0.8;"/>
    </defs>
    <g clip-path="url(#p214a3af930)">
     <use style="fill-opacity:0;stroke:#cfcf1c;stroke-opacity:0.8;" x="163.0325" xlink:href="#mb82b9d7b24" y="142.2"/>
    </g>
   </g>
   <g id="line2d_36">
    <defs>
     <path d="M 0 11.5 
C 3.049836 11.5 5.975169 10.288287 8.131728 8.131728 
C 10.288287 5.975169 11.5 3.049836 11.5 0 
C 11.5 -3.049836 10.288287 -5.975169 8.131728 -8.131728 
C 5.975169 -10.288287 3.049836 -11.5 0 -11.5 
C -3.049836 -11.5 -5.975169 -10.288287 -8.131728 -8.131728 
C -10.288287 -5.975169 -11.5 -3.049836 -11.5 0 
C -11.5 3.049836 -10.288287 5.975169 -8.131728 8.131728 
C -5.975169 10.288287 -3.049836 11.5 0 11.5 
z
" id="m4aba075167" style="stroke:#ff7c80;stroke-opacity:0.8;"/>
    </defs>
    <g clip-path="url(#p214a3af930)">
     <use style="fill-opacity:0;stroke:#ff7c80;stroke-opacity:0.8;" x="251.998408" xlink:href="#m4aba075167" y="211.855277"/>
    </g>
   </g>
   <g id="line2d_37">
    <defs>
     <path d="M 0 6 
C 1.591219 6 3.117479 5.367802 4.242641 4.242641 
C 5.367802 3.117479 6 1.591219 6 0 
C 6 -1.591219 5.367802 -3.117479 4.242641 -4.242641 
C 3.117479 -5.367802 1.591219 -6 0 -6 
C -1.591219 -6 -3.117479 -5.367802 -4.242641 -4.242641 
C -5.367802 -3.117479 -6 -1.591219 -6 0 
C -6 1.591219 -5.367802 3.117479 -4.242641 4.242641 
C -3.117479 5.367802 -1.591219 6 0 6 
z
" id="m941713d8dc" style="stroke:#ff0000;stroke-opacity:0.5;"/>
    </defs>
    <g clip-path="url(#p214a3af930)">
     <use style="fill:#ff0000;fill-opacity:0.5;stroke:#ff0000;stroke-opacity:0.5;" x="64.905675" xlink:href="#m941713d8dc" y="130.732133"/>
    </g>
   </g>
   <g id="line2d_38">
    <defs>
     <path d="M 0 6 
C 1.591219 6 3.117479 5.367802 4.242641 4.242641 
C 5.367802 3.117479 6 1.591219 6 0 
C 6 -1.591219 5.367802 -3.117479 4.242641 -4.242641 
C 3.117479 -5.367802 1.591219 -6 0 -6 
C -1.591219 -6 -3.117479 -5.367802 -4.242641 -4.242641 
C -5.367802 -3.117479 -6 -1.591219 -6 0 
C -6 1.591219 -5.367802 3.117479 -4.242641 4.242641 
C -3.117479 5.367802 -1.591219 6 0 6 
z
" id="m63c233e5ea" style="stroke:#cfcf1c;stroke-opacity:0.5;"/>
    </defs>
    <g clip-path="url(#p214a3af930)">
     <use style="fill:#cfcf1c;fill-opacity:0.5;stroke:#cfcf1c;stroke-opacity:0.5;" x="65.503265" xlink:href="#m63c233e5ea" y="153.853722"/>
    </g>
   </g>
   <g id="line2d_39">
    <defs>
     <path d="M 0 12.5 
C 3.315039 12.5 6.494748 11.182921 8.838835 8.838835 
C 11.182921 6.494748 12.5 3.315039 12.5 0 
C 12.5 -3.315039 11.182921 -6.494748 8.838835 -8.838835 
C 6.494748 -11.182921 3.315039 -12.5 0 -12.5 
C -3.315039 -12.5 -6.494748 -11.182921 -8.838835 -8.838835 
C -11.182921 -6.494748 -12.5 -3.315039 -12.5 0 
C -12.5 3.315039 -11.182921 6.494748 -8.838835 8.838835 
C -6.494748 11.182921 -3.315039 12.5 0 12.5 
z
" id="m3173aa7821" style="stroke:#ff0000;stroke-opacity:0.8;"/>
    </defs>
    <g clip-path="url(#p214a3af930)">
     <use style="fill-opacity:0;stroke:#ff0000;stroke-opacity:0.8;" x="239.869095" xlink:href="#m3173aa7821" y="76.317041"/>
    </g>
   </g>
   <g id="line2d_40">
    <defs>
     <path d="M 0 12.5 
C 3.315039 12.5 6.494748 11.182921 8.838835 8.838835 
C 11.182921 6.494748 12.5 3.315039 12.5 0 
C 12.5 -3.315039 11.182921 -6.494748 8.838835 -8.838835 
C 6.494748 -11.182921 3.315039 -12.5 0 -12.5 
C -3.315039 -12.5 -6.494748 -11.182921 -8.838835 -8.838835 
C -11.182921 -6.494748 -12.5 -3.315039 -12.5 0 
C -12.5 3.315039 -11.182921 6.494748 -8.838835 8.838835 
C -6.494748 11.182921 -3.315039 12.5 0 12.5 
z
" id="m0b5b45fc49" style="stroke:#cfcf1c;stroke-opacity:0.8;"/>
    </defs>
    <g clip-path="url(#p214a3af930)">
     <use style="fill-opacity:0;stroke:#cfcf1c;stroke-opacity:0.8;" x="163.0325" xlink:href="#m0b5b45fc49" y="142.2"/>
    </g>
   </g>
   <g id="line2d_41">
    <defs>
     <path d="M 0 12.5 
C 3.315039 12.5 6.494748 11.182921 8.838835 8.838835 
C 11.182921 6.494748 12.5 3.315039 12.5 0 
C 12.5 -3.315039 11.182921 -6.494748 8.838835 -8.838835 
C 6.494748 -11.182921 3.315039 -12.5 0 -12.5 
C -3.315039 -12.5 -6.494748 -11.182921 -8.838835 -8.838835 
C -11.182921 -6.494748 -12.5 -3.315039 -12.5 0 
C -12.5 3.315039 -11.182921 6.494748 -8.838835 8.838835 
C -6.494748 11.182921 -3.315039 12.5 0 12.5 
z
" id="mdc238640c9" style="stroke:#ff7c80;stroke-opacity:0.8;"/>
    </defs>
    <g clip-path="url(#p214a3af930)">
     <use style="fill-opacity:0;stroke:#ff7c80;stroke-opacity:0.8;" x="240.049315" xlink:href="#mdc238640c9" y="208.139009"/>
    </g>
   </g>
   <g id="line2d_42">
    <defs>
     <path d="M 0 7 
C 1.856422 7 3.637059 6.262436 4.949747 4.949747 
C 6.262436 3.637059 7 1.856422 7 0 
C 7 -1.856422 6.262436 -3.637059 4.949747 -4.949747 
C 3.637059 -6.262436 1.856422 -7 0 -7 
C -1.856422 -7 -3.637059 -6.262436 -4.949747 -4.949747 
C -6.262436 -3.637059 -7 -1.856422 -7 0 
C -7 1.856422 -6.262436 3.637059 -4.949747 4.949747 
C -3.637059 6.262436 -1.856422 7 0 7 
z
" id="m2398084800" style="stroke:#ff0000;stroke-opacity:0.5;"/>
    </defs>
    <g clip-path="url(#p214a3af930)">
     <use style="fill:#ff0000;fill-opacity:0.5;stroke:#ff0000;stroke-opacity:0.5;" x="63.726325" xlink:href="#m2398084800" y="131.098921"/>
    </g>
   </g>
   <g id="line2d_43">
    <defs>
     <path d="M 0 7 
C 1.856422 7 3.637059 6.262436 4.949747 4.949747 
C 6.262436 3.637059 7 1.856422 7 0 
C 7 -1.856422 6.262436 -3.637059 4.949747 -4.949747 
C 3.637059 -6.262436 1.856422 -7 0 -7 
C -1.856422 -7 -3.637059 -6.262436 -4.949747 -4.949747 
C -6.262436 -3.637059 -7 -1.856422 -7 0 
C -7 1.856422 -6.262436 3.637059 -4.949747 4.949747 
C -3.637059 6.262436 -1.856422 7 0 7 
z
" id="m1346907a68" style="stroke:#cfcf1c;stroke-opacity:0.5;"/>
    </defs>
    <g clip-path="url(#p214a3af930)">
     <use style="fill:#cfcf1c;fill-opacity:0.5;stroke:#cfcf1c;stroke-opacity:0.5;" x="62.835147" xlink:href="#m1346907a68" y="153.023915"/>
    </g>
   </g>
   <g id="line2d_44">
    <defs>
     <path d="M 0 13.5 
C 3.580242 13.5 7.014328 12.077555 9.545942 9.545942 
C 12.077555 7.014328 13.5 3.580242 13.5 0 
C 13.5 -3.580242 12.077555 -7.014328 9.545942 -9.545942 
C 7.014328 -12.077555 3.580242 -13.5 0 -13.5 
C -3.580242 -13.5 -7.014328 -12.077555 -9.545942 -9.545942 
C -12.077555 -7.014328 -13.5 -3.580242 -13.5 0 
C -13.5 3.580242 -12.077555 7.014328 -9.545942 9.545942 
C -7.014328 12.077555 -3.580242 13.5 0 13.5 
z
" id="mb2b25301de" style="stroke:#ff0000;stroke-opacity:0.8;"/>
    </defs>
    <g clip-path="url(#p214a3af930)">
     <use style="fill-opacity:0;stroke:#ff0000;stroke-opacity:0.8;" x="259.186213" xlink:href="#mb2b25301de" y="70.309255"/>
    </g>
   </g>
   <g id="line2d_45">
    <defs>
     <path d="M 0 13.5 
C 3.580242 13.5 7.014328 12.077555 9.545942 9.545942 
C 12.077555 7.014328 13.5 3.580242 13.5 0 
C 13.5 -3.580242 12.077555 -7.014328 9.545942 -9.545942 
C 7.014328 -12.077555 3.580242 -13.5 0 -13.5 
C -3.580242 -13.5 -7.014328 -12.077555 -9.545942 -9.545942 
C -12.077555 -7.014328 -13.5 -3.580242 -13.5 0 
C -13.5 3.580242 -12.077555 7.014328 -9.545942 9.545942 
C -7.014328 12.077555 -3.580242 13.5 0 13.5 
z
" id="mabf64a4976" style="stroke:#cfcf1c;stroke-opacity:0.8;"/>
    </defs>
    <g clip-path="url(#p214a3af930)">
     <use style="fill-opacity:0;stroke:#cfcf1c;stroke-opacity:0.8;" x="163.0325" xlink:href="#mabf64a4976" y="142.2"/>
    </g>
   </g>
   <g id="line2d_46">
    <defs>
     <path d="M 0 13.5 
C 3.580242 13.5 7.014328 12.077555 9.545942 9.545942 
C 12.077555 7.014328 13.5 3.580242 13.5 0 
C 13.5 -3.580242 12.077555 -7.014328 9.545942 -9.545942 
C 7.014328 -12.077555 3.580242 -13.5 0 -13.5 
C -3.580242 -13.5 -7.014328 -12.077555 -9.545942 -9.545942 
C -12.077555 -7.014328 -13.5 -3.580242 -13.5 0 
C -13.5 3.580242 -12.077555 7.014328 -9.545942 9.545942 
C -7.014328 12.077555 -3.580242 13.5 0 13.5 
z
" id="m869b19f8bc" style="stroke:#ff7c80;stroke-opacity:0.8;"/>
    </defs>
    <g clip-path="url(#p214a3af930)">
     <use style="fill-opacity:0;stroke:#ff7c80;stroke-opacity:0.8;" x="254.411249" xlink:href="#m869b19f8bc" y="212.605691"/>
    </g>
   </g>
   <g id="line2d_47">
    <defs>
     <path d="M 0 7.5 
C 1.989023 7.5 3.896849 6.709753 5.303301 5.303301 
C 6.709753 3.896849 7.5 1.989023 7.5 0 
C 7.5 -1.989023 6.709753 -3.896849 5.303301 -5.303301 
C 3.896849 -6.709753 1.989023 -7.5 0 -7.5 
C -1.989023 -7.5 -3.896849 -6.709753 -5.303301 -5.303301 
C -6.709753 -3.896849 -7.5 -1.989023 -7.5 0 
C -7.5 1.989023 -6.709753 3.896849 -5.303301 5.303301 
C -3.896849 6.709753 -1.989023 7.5 0 7.5 
z
" id="m5db87fff48" style="stroke:#000000;"/>
    </defs>
    <g clip-path="url(#p214a3af930)">
     <use style="stroke:#000000;" x="28.0325" xlink:href="#m5db87fff48" y="142.2"/>
    </g>
   </g>
   <g id="patch_3">
    <path d="M 261.859359 277.2 
C 285.555044 236.157869 298.0325 189.591371 298.0325 142.2 
C 298.0325 94.808629 285.555044 48.242131 261.859359 7.2 
" style="fill:none;stroke:#cccccc;stroke-linecap:square;stroke-linejoin:miter;stroke-width:0.8;"/>
   </g>
   <g id="patch_4">
    <path d="M 28.0325 142.2 
L 261.859359 277.2 
" style="fill:none;stroke:#cccccc;stroke-linecap:square;stroke-linejoin:miter;stroke-width:0.8;"/>
   </g>
   <g id="patch_5">
    <path d="M 28.0325 142.2 
L 261.859359 7.2 
" style="fill:none;stroke:#cccccc;stroke-linecap:square;stroke-linejoin:miter;stroke-width:0.8;"/>
   </g>
   <g id="text_11"/>
  </g>
  <defs>
   <clipPath id="p214a3af930">
    <path d="M 261.859359 277.2 
C 285.555044 236.157869 298.0325 189.591371 298.0325 142.2 
C 298.0325 94.808629 285.555044 48.242131 261.859359 7.2 
L 28.0325 142.2 
C 28.0325 142.2 28.0325 142.2 28.0325 142.2 
C 28.0325 142.2 28.0325 142.2 28.0325 142.2 
L 261.859359 277.2 
z
"/>
   </clipPath>
  </defs>
 </g>
</svg>
